<svg id="Layer_2" data-name="Layer 2" xmlns="http://www.w3.org/2000/svg" viewBox="0 0 762.26 729.94"><defs><style>.cls-1{fill:red;}.cls-2{fill:maroon;}</style></defs><title>potato donkey</title><path class="cls-1" d="M915,356" transform="translate(-118.87 -135.03)"/><path class="cls-2" d="M881,582.28c-56.51-158.19-95.3-219-120.92-244.37-22.43-22.22-62.7-44.71-84.44-83.56-2.18-3.89-11.76-21.5-20-20-5.74,1-5.93,10.48-14.22,22.22-11.66,16.5-29,22.86-29.78,21.77-1.17-1.58,33.65-17.73,37.33-46.22,1.28-9.83-1.52-23.48-8.88-34.66-5.29-8-9.45-7.49-16-16-9.09-11.79-3.1-21-10.67-28.45s-19.26-6.42-21.33-6.22c-11.57,1.11-19.25,8.83-31.24,21.29-12.35,12.84-21.49,26.24-22.09,25.82s11.94-13.86,8.19-21.16c-4.25-8.25-24.27,1.19-35.75-9.95-8.24-8-2.75-17.65-11.55-24-8-5.77-21.74-4.72-28.45,1.78-5.84,5.67-7.78,15.61-8,16.89-.95,5.56,0,8.83-2.66,11.55s-6.44,2.48-10.67,2.67c-7.55.34-14.78,3.15-22.22,4.44-10.1,1.77-18.29,4.14-34.67,8.89C334.55,202,211,255.31,164.52,293.46a135.19,135.19,0,0,0-18.67,18.67c-15.4,18.9-21,36.66-22.22,40.89a122.84,122.84,0,0,0-4.44,26.66c-1.07,15.57.47,26.22,6.22,58.67.91,5.13,10.22,56.58,24.89,81.77a27.19,27.19,0,0,0,8.88,9.78c7.29,4.65,14.79,3.8,25.78,3.56,9.48-.21,19,1,28.44.88,26-.35,53.33,8.5,73.78,15.12,19.48,6.29,47.51,15.36,70.22,31.11,30,20.77,36.76,43.6,69.33,110.21,38.89,79.54,58.8,119.65,81.33,136.44,14.32,10.67,42,23.24,74.35,30.45,18.9,4.21,37.11,5.44,47.72,6.22,11.36.83,25.56.91,53.51,1.05,14.31.07,17.7,0,54.22,0q21.78,0,43.55,0h65.78c3.26,0,6.52,0,9.78,0H867.9c6.7,0,6.69,0,6.84,0H881V842.39c.11-3.12.15-6.41.16-9.78,0-5.46-.09-11.12-.16-16.56-.28-21.33,0-42.67,0-64q0-12.43,0-24.89V688.94M444.34,301.29c-27.55,6.34-58.58-8.68-58.42-19.47.1-6.66,12.07-11.37,21.64-15.15,30.6-12.06,72.72-12.66,76.8,0C487.64,276.83,466.63,296.16,444.34,301.29Z" transform="translate(-118.87 -135.03)"/><path class="cls-1" d="M931,593" transform="translate(-118.87 -135.03)"/></svg>