<?xml version="1.0" encoding="utf-8"?>
<!-- Generator: Adobe Illustrator 23.0.1, SVG Export Plug-In . SVG Version: 6.00 Build 0)  -->
<svg version="1.1" xmlns="http://www.w3.org/2000/svg" xmlns:xlink="http://www.w3.org/1999/xlink" x="0px" y="0px"
	 viewBox="0 0 1000 1000" style="enable-background:new 0 0 1000 1000;" xml:space="preserve">
<style type="text/css">
	.st0{display:none;}
	.st1{display:inline;fill:#0C0C0C;}
	.st2{display:inline;fill:#FF0000;}
	.st3{display:inline;fill:#800000;}
	.st4{fill:#0C0C0C;}
	.st5{fill:#800000;}
	.st6{fill:#FFFFFF;}
</style>
<g id="Layer_3" class="st0">
</g>
<g id="Layer_2" class="st0">
</g>
<g id="black_x5F_fullsize">
	<g>
		<path class="st6" d="M211.2,115.4c7.2-2.8,13.2-5.6,19.6-7.5c12.1-3.8,23.6-1.3,34.1,5.3c8.9,5.5,10.9,13.7,6.3,23.3
			c-6.2,13-12.8,25.9-19.7,39.8c1.2,0.5,3.6,1.7,6.2,2.4c5.2,1.5,10.7,2.3,15.6,4.3c2.4,1,5,3.9,5.4,6.3c0.2,1.5-3.3,4-5.6,5.3
			c-2.5,1.5-7.6,1.7-7.8,3.2c-0.9,5.2-0.5,10.7,0,16.1c0.1,0.8,3.5,2.1,5.1,1.8c27.6-5,55.6-3.6,83.3-5.9c28-2.3,55.2,2.5,82.6,5.1
			c17.3,1.6,34.7,4.5,51.7,8.2c17,3.8,33.7,9,50.4,14.3c6.4,2,12,6.8,18.4,8.4c10.2,2.6,20.7,3.8,31.2,5.5c18,2.9,35.6-1.9,53.3-3.3
			c18.7-1.5,37.2-4.3,55.2,4.1c9.4,4.4,15.9,11.5,20.8,19.9c6.8,11.7,11.9,24.2,5.6,37.9c-4.7,10.3-11.8,18.5-22.2,23.7
			c-8,4.1-15.6,8.7-23.5,12.9c-5.5,3-7.6,7.4-6.5,13.4c3.5,19.5,8.4,38.6,17.2,56.5c3.5,7.1,5.8,14.8,9.4,21.8
			c12.1,23.4,24.1,46.9,37.1,69.8c13,23,26.7,45.6,41.2,67.7c8.7,13.3,19.3,25.2,32.3,35.1c10.2,7.7,18.8,17.5,27.6,26.8
			c7,7.4,13.5,15.3,19.6,23.4c5.1,6.8,10,13.9,13.5,21.5c5.3,11.7,10,23.8,13.5,36.1c1.9,6.6,1.3,13.9,1.2,21
			c-0.1,12.1-6.9,21.1-16.1,27.5c-23.3,16.3-48.3,29.5-75.5,38.1c-13,4.1-26,9.2-39.4,11.4c-24.4,3.9-49.1,5.7-73.7,8.7
			c-9.6,1.2-19.1,3.6-28.8,4.9c-10.5,1.5-21,2.8-31.5,3.5c-19.7,1.2-39.5,2.6-59.2,2.5c-17.6-0.1-35.2-2.3-52.9-3.2
			c-5.3-0.3-10.8,0.6-16.1,0.9c-17.6,1.1-34.1-4.3-50.8-8.7c-22.5-5.9-44.6-13-67.2-18.4c-14.1-3.4-28.7-5.9-43.1-6.3
			c-16.8-0.4-27.4-9.4-35.2-22.1c-8.7-14.2-13.9-30.1-16.4-46.8c-2.2-14.8-4.4-29.6-7.5-44.3c-4.9-23.9-14.7-45.8-33.6-61.7
			c-7.3-6.2-17.9-9.2-27.5-11.8c-21.8-5.7-43.2-12.4-62-24.9c-12.7-8.4-24.7-18.1-36-28.3c-13.5-12.2-22.1-28.2-27.2-45.5
			c-5.5-18.5-9.5-37.4-13.6-56.2c-1.6-7.3-2.3-14.9-1.9-22.3c1.3-27.8-4.4-55.8,1.1-83.4c3.3-16.9,7.2-33.7,11.7-50.3
			c3.3-12.2,7.8-24.1,12.4-35.9c8.3-21.3,25.3-32.5,46.6-36.7c12.7-2.5,26-2.2,39.1-2.9c7.6-0.4,8-1,7.2-8.5c-1-8.2-1.5-16.6-2-24.8
			c-0.2-3.9-0.9-6.8-5.6-7.6c-3.2-0.5-6.3-2-9.5-3.1c-4.8-1.6-8.3-4-9.2-9.7c-0.9-5.3-3.8-8.8-9.5-11c-14.2-5.6-25.5-15.6-34.5-27.8
			c-7-9.6-14.2-19.4-16.1-31.5c-2.2-13.7,1-26.7,8.4-38.2c7.4-11.4,19.8-14.5,32.1-15.2c24.3-1.5,43.7,9.1,59.7,26.8
			c7.4,8.2,9.9,18.1,10.6,28.7C210.9,108.6,211,111.7,211.2,115.4z M688.3,267.5c-7.8-7.4-16.5-8.5-26.5-4.3
			c-8.2,3.5-16.6,7.7-25.3,8.5c-18.6,1.7-37.4,2-56,1.6c-8.1-0.2-16.7-2.3-24.2-5.5c-35.9-15.7-73.3-25.3-112-30.1
			c-15.1-1.9-30.2-3.3-45.3-4.8c-8.5-0.9-17-2.3-25.5-2.1c-19.3,0.3-38.7,1-58,2.2c-12,0.7-24,2.2-35.9,3.9
			c-10.6,1.5-21.1,4.7-31.8,5.8c-22.7,2.2-45.6,3.5-68.3,5.2c-4.8,0.4-10.3-0.2-14.1,2.1c-11.2,6.7-22.2,13.9-32.1,22.2
			c-10.6,8.9-13.8,22.2-18,34.9c-9,27.3-16.1,55-18.4,83.8c-0.5,6.6-1.4,13.3-0.9,19.9c1.2,17.7,1,35.6,6.9,52.7
			c3.8,11.1,5.5,23,9.6,33.9c9.4,25,22.6,48,38.8,69.3c5.2,6.9,11.2,13.9,18.5,18.2c10.8,6.4,22.6,12,34.8,15
			c12.8,3.2,25.1,7.3,36.9,12.8c11.6,5.4,22.3,12,31,21.6c11,12,13.4,26.8,14.4,42.2c0.5,7.7,0.2,15.6,2,22.9
			c4.1,16.3,9.1,32.4,14,48.5c6.6,21.5,19.3,31.4,39.2,33.4c13.4,1.3,26.8,3.8,39.8,7.1c21.6,5.4,42.8,12,64.3,18
			c15.2,4.2,30.5,6.8,46.6,6.5c21.5-0.5,43.2,2.1,64.7,3.3c28.6,1.5,56.9-2.6,85.2-5.9c26.8-3.1,53.6-6.8,80.4-10.3
			c25.4-3.3,50.4-7.3,74.5-17c17-6.8,29.3-18.4,39.3-32.4c11.8-16.6,15.7-36,14.3-56.2c-0.3-3.7-2-7.7-4.2-10.8
			c-4.3-6.1-9.2-11.8-14.3-17.3c-18.5-19.9-37.3-39.7-55.9-59.5c-6.4-6.8-13.3-13.1-19-20.4c-5.1-6.5-9-14-13-21.2
			c-6-10.9-11.5-22-17.4-32.9c-3.8-7.1-8.3-13.9-11.8-21.2c-8.2-16.8-17.3-33-24.2-50.5c-8-20.2-18.6-39.4-28-59.1
			c-7-14.8-12.2-30.1-12.9-46.6c-0.3-6.5,2.4-12,7.7-15.6c4.3-2.9,8.9-5.5,13.7-7.4c17.4-6.8,27.8-19.7,33.4-37
			c2.2-6.8-0.1-10.2-6.4-13.5c-10.2-5.3-19.2-0.4-28.1,3.1c-10.8,4.3-21,10-31.6,14.8c-1.8,0.8-4.4,0.1-6.7,0c0.8-2,1.1-4.7,2.6-5.7
			c8.8-6.2,17.4-13,26.9-17.8C670.3,271.9,679.6,270.2,688.3,267.5z M198.6,144.7c-0.3-7.1-0.7-14.1-0.9-21.2
			c-0.5-13.7-5.5-26-12.9-37c-9.1-13.6-23.5-20.5-38.8-24.4c-13.7-3.5-24.5,4.5-27.6,18.4c-1.8,8-0.7,15.3,3.2,22.3
			c10,17.6,24.1,31.5,38.9,45c7.3,6.6,14.5,10.5,24.9,10.1C198.3,157.4,198.7,157.9,198.6,144.7z M209,151.1
			c-0.4,10.8,3.1,15.6,13.5,18.5c2.8,0.8,5.7,1.9,8.5,1.7c2.7-0.2,6.3-1.3,7.7-3.3c6.1-8.8,11.9-18,17.2-27.3
			c5.5-9.8,1-19.2-9.9-21.8C228.5,114.8,209.7,131.2,209,151.1z M251.7,218.8c-0.9-7.4-1.6-14.4-2.7-21.4c-0.2-1.2-1.9-2.9-3.2-3.1
			c-3.1-0.7-6.4-0.7-10.4-1.1c0.8,8.1,1.6,15.5,2.3,22.8c0.5,5.1,3.6,6.1,7.9,4.9C247.4,220.4,249.1,219.7,251.7,218.8z M225,224.3
			c-1.5-11-2.8-21-4.1-30.9c-0.6-0.3-1.2-0.5-1.8-0.8c-1.2,1.6-3.4,3.3-3.3,4.9c0.2,9.2,1,18.5,1.6,28.1
			C219.9,225.2,222.2,224.8,225,224.3z M200.8,225.3c0.9-0.1,1.9-0.2,2.8-0.2c-0.8-10.9-1.7-21.8-2.5-32.7c-0.1,0-0.2,0.1-0.3,0.1
			C200.8,203.4,200.8,214.3,200.8,225.3z"/>
		<path class="st6" d="M933.2,751c0.3,22.3-8,39.9-22,55.2c-8.9,9.8-17.3,20.3-27.1,29.1c-6.8,6.1-15.7,9.9-23.6,14.8
			c-23.4,14.4-48.8,24.6-73.4,36.4c-8.7,4.2-18.4,6.6-27.8,9.1c-2.5,0.7-5.8-1.4-8.7-2.2c1.9-2.4,3.3-6,5.8-7.1
			c8.8-4.1,18.1-7.2,27.1-11.1c32.1-14.2,65.3-26.9,92.5-49.6c18.4-15.4,37.9-31.8,44-56.8c5.9-24.3,1.2-46.8-19.3-63.8
			c-3.7-3-7.6-5.8-10.7-9.3c-1.5-1.7-2.4-5.4-1.6-7.4c0.6-1.5,4.4-2.4,6.7-2.3c2,0.1,4.2,1.8,5.9,3.2
			C920.9,705.3,933.6,725.4,933.2,751z"/>
		<path class="st6" d="M500.4,950.1c-20.5-3.2-41.2-5.7-61.5-9.8c-16.7-3.4-33.3-7.8-49.3-13.5c-29.6-10.5-59.6-20.1-86.4-37.1
			c-9.4-6-18.5-12.5-27-19.7c-2.5-2.1-4.5-9.6-3.3-10.6c4.2-3.5,6.9,1.8,10.3,3.8c15.4,9.3,30,20.2,46.3,27.4
			c27,11.9,54.6,22.8,82.7,31.5c20.7,6.4,42.6,9,64.1,12.8c9,1.6,18.3,1.3,27.2,3c4,0.7,10.9,4.7,10.7,6.1
			c-0.9,5.5-6.7,4.6-11.2,4.8c-0.8,0.1-1.7,0-2.5,0C500.5,949.3,500.4,949.7,500.4,950.1z"/>
		<path class="st6" d="M523.4,870.4c13.6,1.5,27.2,3.5,40.9,4.4c20.7,1.4,40.4-3.5,60.1-9.4c11-3.3,22.7-5,34.2-6.5
			c15.8-2.1,31.8-3.4,47.7-4.9c3.3-0.3,7.8-2,9,2.9c1.2,4.8-2.9,6.8-6.6,7.5c-10.6,2.1-21.2,4.3-31.9,5.5
			c-12.8,1.4-25.7,1.8-38.5,2.8c-3.3,0.3-6.6,1.1-9.7,2.2c-20.3,7.3-41.2,11.8-62.9,11.1c-7.6-0.2-15.2-2.5-22.8-3.2
			c-10.6-0.9-21.2-0.8-31.8-1.8c-2.7-0.2-7.2-2.4-7.5-4.3c-0.7-4.5,3.6-5.4,7.2-5.6c4.2-0.2,8.3-0.1,12.5-0.1
			C523.3,871,523.4,870.7,523.4,870.4z"/>
		<path class="st6" d="M415.7,863.8c-19.1,0.8-36-7-53.2-14c-9.1-3.7-19.1-4.9-28.8-7c-3.2-0.7-6.8-0.1-9.8-1.2
			c-1.8-0.6-3-3.3-4.4-5c1.8-1.4,3.5-3.7,5.4-3.9c12.1-0.9,24.1-0.4,35.6,3.9c11.2,4.1,22,9.8,33.4,13.1c9.4,2.7,19.5,3,29.3,4.3
			c2,0.3,4.4-0.1,6.1,0.8c1.5,0.8,3.6,3.1,3.3,4.3c-0.3,1.7-2.3,4.3-3.9,4.5C424.5,864.2,420.1,863.8,415.7,863.8z"/>
		<path class="st6" d="M604.2,937.9c-3.1,0-6.4,0.6-9.3-0.2c-2.3-0.7-4.1-3.1-6.2-4.7c2-1.4,3.9-3.8,6-4.1
			c8.8-1.2,17.8-1.7,26.6-2.7c11.5-1.4,23.1-2.6,34.4-5c7.2-1.5,13.9-5.4,21-7.7c4.1-1.3,8.4-1.8,12.7-2.2c1.3-0.1,3.7,1.1,4,2.1
			c0.4,1.5-0.1,4.2-1.2,4.9c-3.1,2.2-6.7,3.7-10.2,5.5c-14.6,7.4-30.4,9.5-46.3,11.4c-10.5,1.2-21,2-31.5,3
			C604.3,938.1,604.2,938,604.2,937.9z"/>
		<path class="st6" d="M778.6,847.8c-1.2-1-3.1-2.5-5-4c1.7-1.8,3-4.4,5.1-5.3c15-6.2,30.3-12,42.9-22.6c6.3-5.3,11.7-11.6,18-16.8
			c2.7-2.2,8.1-5.1,9.5-4.1c4.1,3,1.7,7.7-1,10.9c-4.1,4.9-8.6,9.6-13.2,14c-14.4,13.9-31.8,22.2-51.2,26.9
			C782.5,847.2,781.2,847.3,778.6,847.8z"/>
		<path class="st6" d="M257.6,756.1c2.4,2.3,5,3.7,4.9,4.9c-0.2,2.6-1.1,6.5-2.9,7.4c-7.3,3.6-12.7,8.4-12.6,16.9
			c0.2,10.8,4.3,20.2,13.2,27c3,2.3,6.6,3.8,9,6.5c1.4,1.6,1.7,5,1.1,7.2c-0.2,0.9-4.5,1.7-6.3,1.1c-16.4-5.8-25.7-18.6-27.4-38.6
			c-0.6-7.4-0.5-15,5-20.5C246.2,763.5,252,760.2,257.6,756.1z"/>
		<path class="st6" d="M433.1,328.6c-8.3,2.5-15.8,4.7-23.2,7c-3.4,1-6.6,2.8-10.1,3c-1.9,0.2-5.2-1.6-5.8-3.2
			c-0.5-1.6,1.1-5.3,2.7-6c13.6-6,26.6-14.5,42.3-12.9c6.7,0.7,13.7,1.9,19.9,4.4c13.1,5.2,26.1,10.7,38.5,17.4
			c12.9,7,26,7.4,39.9,5.2c2.4-0.4,6.6,0.9,7.5,2.7c1.8,3.7-0.9,6.6-4.5,8.2c-5.7,2.6-11.4,5.1-16.9,8c-6.6,3.4-12.7,2.4-18.9-1.2
			c-14.1-8-28-16.5-42.6-23.5C453,333.5,442.8,331.6,433.1,328.6z"/>
		<path class="st6" d="M193,311.9c0.3,17.7-25,35.5-39.1,27c-8.3-5-10-18-1.8-23.4c7.4-4.9,15.2-9.3,23.3-13
			C184.9,298.2,192.8,302.8,193,311.9z"/>
		<path class="st6" d="M659.2,425.8c0,6.3-2.7,8-6.4,4.9c-4.1-3.5-7.6-8.1-10.4-12.8c-3.7-6.1-6.6-12.8-9.5-19.3
			c-0.5-1.2,0.4-4,1.5-4.6c1.2-0.7,4-0.4,5,0.7C648.9,403.9,655.3,415.1,659.2,425.8z"/>
		<path class="st6" d="M769,754.6c-0.6,1.2-1,3.8-2.2,4.2c-1.6,0.6-4-0.2-5.6-1c-1.6-0.8-3.1-2.4-3.8-4c-4-8.7-8-17.4-11.3-26.3
			c-0.8-2.2,1.1-5.5,1.8-8.2c2.3,1.5,5.5,2.4,6.6,4.5c4.8,8.5,9,17.3,13.3,26.1C768.3,751,768.5,752.6,769,754.6z"/>
		<path class="st6" d="M729.2,744.3c-1.1,5.3-4,7.3-8.1,5c-2.2-1.2-4.4-3.4-5.5-5.6c-3.7-7.4-7.2-15-10.1-22.8
			c-0.9-2.5,0.4-5.9,0.7-8.8c2.5,1.3,6.1,2,7.3,4.1C719.1,725.3,724,734.8,729.2,744.3z"/>
		<path class="st6" d="M577.5,489.2c-0.8,1.9-1.4,4.9-2.3,4.9c-2,0.2-5.2-0.4-6.1-1.7c-5.9-9.7-11.5-19.5-16.8-29.5
			c-0.6-1.2,0.1-3.8,1.2-4.9c0.7-0.8,3.4-0.5,4.6,0.2c2.2,1.4,4.4,3.2,5.8,5.4c4.1,6.3,7.9,12.7,11.6,19.2
			C576.5,484.7,576.8,487,577.5,489.2z"/>
		<path class="st6" d="M643.4,663.6c-0.1,6.5-2.2,7.9-6.4,5.8c-1.8-0.9-3.7-2.3-4.6-3.9c-3.8-6.9-7.3-13.9-10.9-20.9
			c-0.4-0.7-1-1.5-0.9-2.3c0.3-2.9,0.8-5.9,1.2-8.8c2.2,1.5,4.8,2.7,6.4,4.6c4.1,5.2,7.9,10.6,11.4,16.3
			C641.5,657.7,642.5,661.5,643.4,663.6z"/>
		<path class="st6" d="M604.4,493.3c1.6,1.2,3.8,2.2,4.6,3.8c5,9.3,9.7,18.8,14.2,28.3c0.5,1.1-0.7,4.1-1.8,4.5
			c-1.8,0.8-4.8,0.9-6.1-0.1c-2-1.5-3.3-4.1-4.4-6.5c-2.9-6.6-5.7-13.3-8-20.2c-1-2.8-0.5-6.1-0.8-9.1
			C602.8,493.8,603.6,493.6,604.4,493.3z"/>
		<path class="st6" d="M789.8,687.8c7.1,0.1,24.5,16.6,24.9,22.8c0.3,4.4-2.2,6.6-6.1,4.7c-3-1.5-5.7-4-8.1-6.5
			c-4.2-4.3-8.3-8.7-12-13.4c-1.1-1.4-1.3-3.8-1.2-5.7C787.4,688.8,789.4,688.1,789.8,687.8z"/>
		<path class="st6" d="M639.3,481.5c0.1,4.5-3.9,7.1-6.9,3.9c-6.5-7.3-12.3-15.3-17.5-23.7c-2.1-3.3,1.6-4.4,4.7-3.9
			C624.7,458.9,639.2,476.5,639.3,481.5z"/>
		<path class="st6" d="M849.3,701.1c-1.2,1.8-1.9,4.1-3.2,4.5c-1.7,0.6-4.7,0.5-5.7-0.6c-5.4-5.7-10.5-11.7-15.2-18
			c-1-1.3-0.8-4.9,0.4-6.2c0.9-1,4.4-0.8,6.1,0C840.1,685.1,844.7,692.9,849.3,701.1z"/>
		<path class="st6" d="M717.3,581.5c-0.8-0.4-3.7-1.1-4.8-2.8c-4-6.2-7.8-12.7-11-19.3c-0.8-1.7,0.6-4.5,1-6.8c2,0.8,4.7,1,5.8,2.4
			c5,6.8,9.7,13.8,14.1,21C724.1,578.9,723.5,581.8,717.3,581.5z"/>
		<path class="st6" d="M654,567.7c-1.4,5.6-5.9,8-9.7,4.9c-6.9-5.6-10-13.7-11.6-22.1c-0.6-3.3,3-6.3,5.5-3.6
			C644,553.4,648.8,560.8,654,567.7z"/>
		<path class="st6" d="M666.4,624.6c1.4-3,1.9-5.8,2.9-6c1.7-0.3,4.4,0.5,5.4,1.8c4.4,6,8.6,12.2,12.3,18.7c0.9,1.6,0.3,5.5-1.1,6.6
			c-1.3,1.1-5.7,0.9-6.6-0.2C674.6,638.6,670.5,631.3,666.4,624.6z"/>
		<path class="st6" d="M684.2,478.8c1.3-2.1,2.1-4.9,3.3-5c1.8-0.2,4.8,0.8,5.7,2.2c3.5,6.1,6.8,12.4,9.3,19
			c0.8,2.1-0.2,6.6-1.8,7.5c-3,1.8-6.4,0.3-7.9-3.5C689.9,492.4,687.1,485.8,684.2,478.8z"/>
		<path class="st6" d="M643.7,610.5c-2.1,2.1-3.6,4.5-4.6,4.3c-2.6-0.5-6.5-1.6-7.2-3.4c-2.8-7.6-4.7-15.5-6.6-23.3
			c-0.3-1,1-3.5,1.4-3.4c1.7,0.1,4.3,0.4,4.9,1.6C635.8,594.1,639.5,602.1,643.7,610.5z"/>
		<path class="st6" d="M728.9,688.8c-3.8-4.4-8.1-8.4-11.1-13.2c-1.7-2.6-1.2-6.6-1.7-10c3.3,1.5,7.2,2.3,9.8,4.7
			c3.5,3.1,6.4,7.1,8.6,11.2C736.7,685.3,734.5,687.9,728.9,688.8z"/>
		<path class="st6" d="M743.6,579.5c6.5,6.7,9.9,14.7,10.6,23.7c0.1,1.8-1.1,3.7-1.8,5.5c-2-0.8-4.5-1.2-5.9-2.6
			C741.9,601.4,740.3,586.4,743.6,579.5z"/>
		<path class="st6" d="M655.5,513.7c1.5-3.1,2.2-5.9,3.1-6c1.6-0.1,4,0.9,5,2.2c3.2,4.2,6.3,8.6,8.7,13.3c0.7,1.4-0.2,4.6-1.5,5.8
			c-0.9,0.8-4.6,0.4-5.5-0.7C661.6,523.6,658.5,518.4,655.5,513.7z"/>
		<path class="st6" d="M763,638.4c1.1-2.5,1.3-4.3,2.2-4.8c1-0.5,3.1,0,3.8,0.8c3.8,4.6,7.5,9.2,10.7,14.2c0.8,1.2-0.4,5.3-1.5,5.7
			c-1.9,0.6-5.6,0.3-6.6-1.1C768.2,648.4,765.6,643.1,763,638.4z"/>
	</g>
</g>
</svg>
